<svg xmlns="http://www.w3.org/2000/svg" width="960" height="500"><defs><style type="text/css">.current{fill:#5fa04e}.active{fill:#229ad6}.maintenance{fill:#b1bcc2}.unstable{fill:#e99c40}.bar-join,.label{fill:#fff}.bar-join.current,.bar-join.unstable{display:none}.tick text{font:16px sans-serif;fill:#89a19d}.axis--y .tick text{text-anchor:end}.label{font:20px sans-serif;font-weight:100;text-anchor:start;dominant-baseline:middle;text-transform:uppercase}</style></defs><g id="bar-container"><g fill="none" class="axis axis--x" font-family="sans-serif" font-size="10" text-anchor="middle"><g class="tick" opacity="1" transform="translate(110, 30) translate(17.173245614035086,0)"><line x1=".5" x2=".5" y2="440" stroke="#89a19d"/><text x=".5" y="0" fill="#000" dy="-10">Oct 2024</text></g><g class="tick" opacity="1" transform="translate(110, 30) translate(116.4813596491228,0)"><line x1=".5" x2=".5" y2="440" stroke="#89a19d" stroke-dasharray="2 2"/><text x=".5" y="0" fill="#000" dy="-10">Jan 2025</text></g><g class="tick" opacity="1" transform="translate(110, 30) translate(213.54166666666669,0)"><line x1=".5" x2=".5" y2="440" stroke="#89a19d"/><text x=".5" y="0" fill="#000" dy="-10">Apr 2025</text></g><g class="tick" opacity="1" transform="translate(110, 30) translate(311.72587719298247,0)"><line x1=".5" x2=".5" y2="440" stroke="#89a19d" stroke-dasharray="2 2"/><text x=".5" y="0" fill="#000" dy="-10">Jul 2025</text></g><g class="tick" opacity="1" transform="translate(110, 30) translate(410.9890350877193,0)"><line x1=".5" x2=".5" y2="440" stroke="#89a19d"/><text x=".5" y="0" fill="#000" dy="-10">Oct 2025</text></g><g class="tick" opacity="1" transform="translate(110, 30) translate(510.297149122807,0)"><line x1=".5" x2=".5" y2="440" stroke="#89a19d" stroke-dasharray="2 2"/><text x=".5" y="0" fill="#000" dy="-10">Jan 2026</text></g><g class="tick" opacity="1" transform="translate(110, 30) translate(607.3574561403508,0)"><line x1=".5" x2=".5" y2="440" stroke="#89a19d"/><text x=".5" y="0" fill="#000" dy="-10">Apr 2026</text></g><g class="tick" opacity="1" transform="translate(110, 30) translate(705.5416666666667,0)"><line x1=".5" x2=".5" y2="440" stroke="#89a19d" stroke-dasharray="2 2"/><text x=".5" y="0" fill="#000" dy="-10">Jul 2026</text></g><g class="tick" opacity="1" transform="translate(110, 30) translate(804.8048245614035,0)"><line x1=".5" x2=".5" y2="440" stroke="#89a19d"/><text x=".5" y="0" fill="#000" dy="-10">Oct 2026</text></g></g><g fill="none" class="axis axis--y" font-family="sans-serif" font-size="10" text-anchor="start" transform="translate(110, 30)"><g class="tick" opacity="1" transform="translate(0,45.39682539682538)"><line x2="820" y1=".5" y2=".5" stroke="#e1e7e7"/><text x="0" y=".5" fill="#000" dx="-10" dy=".32em">Main</text></g><g class="tick" opacity="1" transform="translate(0,115.23809523809523)"><line x2="820" y1=".5" y2=".5" stroke="#e1e7e7"/><text x="0" y=".5" fill="#000" dx="-10" dy=".32em">Node.js 18</text></g><g class="tick" opacity="1" transform="translate(0,185.0793650793651)"><line x2="820" y1=".5" y2=".5" stroke="#e1e7e7"/><text x="0" y=".5" fill="#000" dx="-10" dy=".32em">Node.js 20</text></g><g class="tick" opacity="1" transform="translate(0,254.92063492063494)"><line x2="820" y1=".5" y2=".5" stroke="#e1e7e7"/><text x="0" y=".5" fill="#000" dx="-10" dy=".32em">Node.js 22</text></g><g class="tick" opacity="1" transform="translate(0,324.7619047619048)"><line x2="820" y1=".5" y2=".5" stroke="#e1e7e7"/><text x="0" y=".5" fill="#000" dx="-10" dy=".32em">Node.js 23</text></g><g class="tick" opacity="1" transform="translate(0,394.6031746031747)"><line x2="820" y1=".5" y2=".5" stroke="#e1e7e7"/><text x="0" y=".5" fill="#000" dx="-10" dy=".32em">Node.js 24</text></g><line x2="820" y1="440" y2="440" stroke="#89a19d"/></g><g transform="translate(110, 30)"><rect width="820" height="48.889" x="0" y="20.952" class="bar unstable"/><rect width="2" height="48.889" x="-1" y="20.952" class="bar-join unstable" style="opacity:0"/><text x="15" y="47.397" class="label" style="opacity:1">unstable</text></g><g transform="translate(110, 30)"><rect width="244.921" height="48.889" x="0" y="90.794" class="bar maintenance"/><rect width="2" height="48.889" x="-1" y="90.794" class="bar-join maintenance" style="opacity:0"/><text x="15" y="117.238" class="label" style="opacity:1">maintenance</text></g><g transform="translate(110, 30)"><rect width="598.816" height="48.889" x="39.921" y="160.635" class="bar maintenance"/><rect width="2" height="48.889" x="38.921" y="160.635" class="bar-join maintenance" style="opacity:1"/><text x="54.921" y="187.079" class="label" style="opacity:1">maintenance</text></g><g transform="translate(110, 30)"><rect width="39.921" height="48.889" x="0" y="160.635" class="bar active"/><rect width="2" height="48.889" x="-1" y="160.635" class="bar-join active" style="opacity:0"/><text x="15" y="187.079" class="label" style="opacity:0">active</text></g><g transform="translate(110, 30)"><rect width="387.342" height="48.889" x="432.658" y="230.476" class="bar maintenance"/><rect width="2" height="48.889" x="431.658" y="230.476" class="bar-join maintenance" style="opacity:1"/><text x="447.658" y="256.921" class="label" style="opacity:1">maintenance</text></g><g transform="translate(110, 30)"><rect width="385.184" height="48.889" x="47.474" y="230.476" class="bar active"/><rect width="2" height="48.889" x="46.474" y="230.476" class="bar-join active" style="opacity:1"/><text x="62.474" y="256.921" class="label" style="opacity:1">active</text></g><g transform="translate(110, 30)"><rect width="47.474" height="48.889" x="0" y="230.476" class="bar current"/><rect width="2" height="48.889" x="-1" y="230.476" class="bar-join current" style="opacity:0"/><text x="15" y="256.921" class="label" style="opacity:0">current</text></g><g transform="translate(110, 30)"><rect width="65.816" height="48.889" x="213.632" y="300.317" class="bar maintenance"/><rect width="2" height="48.889" x="212.632" y="300.317" class="bar-join maintenance" style="opacity:1"/><text x="228.632" y="326.762" class="label" style="opacity:0">maintenance</text></g><g transform="translate(110, 30)"><rect width="180.184" height="48.889" x="33.447" y="300.317" class="bar current"/><rect width="2" height="48.889" x="32.447" y="300.317" class="bar-join current" style="opacity:0"/><text x="48.447" y="326.762" class="label" style="opacity:1">current</text></g><g transform="translate(110, 30)"><rect width="379.789" height="48.889" x="440.211" y="370.159" class="bar active"/><rect width="2" height="48.889" x="439.211" y="370.159" class="bar-join active" style="opacity:1"/><text x="455.211" y="396.603" class="label" style="opacity:1">active</text></g><g transform="translate(110, 30)"><rect width="203.921" height="48.889" x="236.289" y="370.159" class="bar current"/><rect width="2" height="48.889" x="235.289" y="370.159" class="bar-join current" style="opacity:0"/><text x="251.289" y="396.603" class="label" style="opacity:1">current</text></g></g></svg>