<svg xmlns="http://www.w3.org/2000/svg" width="960" height="500"><defs><style type="text/css">.current{fill:#5fa04e}.alpha{fill:#e99c40}.active{fill:#229ad6}.lts,.maintenance{fill:#b1bcc2}.unstable{fill:#e99c40}.bar-join,.label{fill:#fff}.bar-join.alpha,.bar-join.current,.bar-join.unstable{display:none}.tick text{font:16px sans-serif;fill:#89a19d}.axis--y .tick text{text-anchor:end}.label{font:20px sans-serif;font-weight:100;text-anchor:start;dominant-baseline:middle;text-transform:uppercase}</style></defs><g id="bar-container"><g fill="none" class="axis axis--x" font-family="sans-serif" font-size="10" text-anchor="middle"><g class="tick" opacity="1" transform="translate(110, 30) translate(77.16147615788273,0)"><line x1=".5" x2=".5" y2="440" stroke="#89a19d"/><text x=".5" y="0" fill="#000" dy="-10">Jan 2026</text></g><g class="tick" opacity="1" transform="translate(110, 30) translate(179.59131873146248,0)"><line x1=".5" x2=".5" y2="440" stroke="#89a19d" stroke-dasharray="2 2"/><text x=".5" y="0" fill="#000" dy="-10">Jan 2027</text></g><g class="tick" opacity="1" transform="translate(110, 30) translate(282.0211613050422,0)"><line x1=".5" x2=".5" y2="440" stroke="#89a19d"/><text x=".5" y="0" fill="#000" dy="-10">Jan 2028</text></g><g class="tick" opacity="1" transform="translate(110, 30) translate(384.731633584303,0)"><line x1=".5" x2=".5" y2="440" stroke="#89a19d" stroke-dasharray="2 2"/><text x=".5" y="0" fill="#000" dy="-10">Jan 2029</text></g><g class="tick" opacity="1" transform="translate(110, 30) translate(487.1614761578827,0)"><line x1=".5" x2=".5" y2="440" stroke="#89a19d"/><text x=".5" y="0" fill="#000" dy="-10">Jan 2030</text></g><g class="tick" opacity="1" transform="translate(110, 30) translate(589.5913187314625,0)"><line x1=".5" x2=".5" y2="440" stroke="#89a19d" stroke-dasharray="2 2"/><text x=".5" y="0" fill="#000" dy="-10">Jan 2031</text></g><g class="tick" opacity="1" transform="translate(110, 30) translate(692.0211613050423,0)"><line x1=".5" x2=".5" y2="440" stroke="#89a19d"/><text x=".5" y="0" fill="#000" dy="-10">Jan 2032</text></g><g class="tick" opacity="1" transform="translate(110, 30) translate(794.7316335843029,0)"><line x1=".5" x2=".5" y2="440" stroke="#89a19d" stroke-dasharray="2 2"/><text x=".5" y="0" fill="#000" dy="-10">Jan 2033</text></g></g><g fill="none" class="axis axis--y" font-family="sans-serif" font-size="10" text-anchor="start" transform="translate(110, 30)"><g class="tick" opacity="1" transform="translate(0,34.457831325301214)"><line x2="820" y1=".5" y2=".5" stroke="#e1e7e7"/><text x="0" y=".5" fill="#000" dx="-10" dy=".32em">Main</text></g><g class="tick" opacity="1" transform="translate(0,87.4698795180723)"><line x2="820" y1=".5" y2=".5" stroke="#e1e7e7"/><text x="0" y=".5" fill="#000" dx="-10" dy=".32em">Node.js 24</text></g><g class="tick" opacity="1" transform="translate(0,140.4819277108434)"><line x2="820" y1=".5" y2=".5" stroke="#e1e7e7"/><text x="0" y=".5" fill="#000" dx="-10" dy=".32em">Node.js 25</text></g><g class="tick" opacity="1" transform="translate(0,193.49397590361446)"><line x2="820" y1=".5" y2=".5" stroke="#e1e7e7"/><text x="0" y=".5" fill="#000" dx="-10" dy=".32em">Node.js 26</text></g><g class="tick" opacity="1" transform="translate(0,246.50602409638554)"><line x2="820" y1=".5" y2=".5" stroke="#e1e7e7"/><text x="0" y=".5" fill="#000" dx="-10" dy=".32em">Node.js 27</text></g><g class="tick" opacity="1" transform="translate(0,299.51807228915663)"><line x2="820" y1=".5" y2=".5" stroke="#e1e7e7"/><text x="0" y=".5" fill="#000" dx="-10" dy=".32em">Node.js 28</text></g><g class="tick" opacity="1" transform="translate(0,352.5301204819277)"><line x2="820" y1=".5" y2=".5" stroke="#e1e7e7"/><text x="0" y=".5" fill="#000" dx="-10" dy=".32em">Node.js 29</text></g><g class="tick" opacity="1" transform="translate(0,405.5421686746988)"><line x2="820" y1=".5" y2=".5" stroke="#e1e7e7"/><text x="0" y=".5" fill="#000" dx="-10" dy=".32em">Node.js 30</text></g><line x2="820" y1="440" y2="440" stroke="#89a19d"/></g><g transform="translate(110, 30)"><rect width="820" height="37.108" x="0" y="15.904" class="bar unstable"/><rect width="2" height="37.108" x="-1" y="15.904" class="bar-join unstable" style="opacity:0"/><text x="15" y="36.458" class="label" style="opacity:1">unstable</text></g><g transform="translate(110, 30)"><rect width="153.785" height="37.108" x="153.785" y="68.916" class="bar maintenance"/><rect width="2" height="37.108" x="152.785" y="68.916" class="bar-join maintenance" style="opacity:1"/><text x="168.785" y="89.47" class="label" style="opacity:0">maintenance</text></g><g transform="translate(110, 30)"><rect width="102.43" height="37.108" x="51.355" y="68.916" class="bar active"/><rect width="2" height="37.108" x="50.355" y="68.916" class="bar-join active" style="opacity:1"/><text x="66.355" y="89.47" class="label" style="opacity:1">active</text></g><g transform="translate(110, 30)"><rect width="51.355" height="37.108" x="0" y="68.916" class="bar current"/><rect width="2" height="37.108" x="-1" y="68.916" class="bar-join current" style="opacity:0"/><text x="15" y="89.47" class="label" style="opacity:0">current</text></g><g transform="translate(110, 30)"><rect width="17.118" height="37.108" x="102.43" y="121.928" class="bar maintenance"/><rect width="2" height="37.108" x="101.43" y="121.928" class="bar-join maintenance" style="opacity:1"/><text x="117.43" y="142.482" class="label" style="opacity:0">maintenance</text></g><g transform="translate(110, 30)"><rect width="51.075" height="37.108" x="51.355" y="121.928" class="bar current"/><rect width="2" height="37.108" x="50.355" y="121.928" class="bar-join current" style="opacity:1"/><text x="66.355" y="142.482" class="label" style="opacity:0">current</text></g><g transform="translate(110, 30)"><rect width="153.785" height="37.108" x="256.215" y="174.94" class="bar maintenance"/><rect width="2" height="37.108" x="255.215" y="174.94" class="bar-join maintenance" style="opacity:1"/><text x="271.215" y="195.494" class="label" style="opacity:0">maintenance</text></g><g transform="translate(110, 30)"><rect width="102.43" height="37.108" x="153.785" y="174.94" class="bar active"/><rect width="2" height="37.108" x="152.785" y="174.94" class="bar-join active" style="opacity:1"/><text x="168.785" y="195.494" class="label" style="opacity:1">active</text></g><g transform="translate(110, 30)"><rect width="51.355" height="37.108" x="102.43" y="174.94" class="bar current"/><rect width="2" height="37.108" x="101.43" y="174.94" class="bar-join current" style="opacity:1"/><text x="117.43" y="195.494" class="label" style="opacity:0">current</text></g><g transform="translate(110, 30)"><rect width="256.215" height="37.108" x="256.215" y="227.952" class="bar lts"/><rect width="2" height="37.108" x="255.215" y="227.952" class="bar-join lts" style="opacity:1"/><text x="271.215" y="248.506" class="label" style="opacity:1">lts</text></g><g transform="translate(110, 30)"><rect width="51.355" height="37.108" x="204.86" y="227.952" class="bar current"/><rect width="2" height="37.108" x="203.86" y="227.952" class="bar-join current" style="opacity:1"/><text x="219.86" y="248.506" class="label" style="opacity:0">current</text></g><g transform="translate(110, 30)"><rect width="51.075" height="37.108" x="153.785" y="227.952" class="bar alpha"/><rect width="2" height="37.108" x="152.785" y="227.952" class="bar-join alpha" style="opacity:0"/><text x="168.785" y="248.506" class="label" style="opacity:0">alpha</text></g><g transform="translate(110, 30)"><rect width="255.934" height="37.108" x="358.925" y="280.964" class="bar lts"/><rect width="2" height="37.108" x="357.925" y="280.964" class="bar-join lts" style="opacity:1"/><text x="373.925" y="301.518" class="label" style="opacity:1">lts</text></g><g transform="translate(110, 30)"><rect width="51.355" height="37.108" x="307.57" y="280.964" class="bar current"/><rect width="2" height="37.108" x="306.57" y="280.964" class="bar-join current" style="opacity:1"/><text x="322.57" y="301.518" class="label" style="opacity:0">current</text></g><g transform="translate(110, 30)"><rect width="51.355" height="37.108" x="256.215" y="280.964" class="bar alpha"/><rect width="2" height="37.108" x="255.215" y="280.964" class="bar-join alpha" style="opacity:0"/><text x="271.215" y="301.518" class="label" style="opacity:0">alpha</text></g><g transform="translate(110, 30)"><rect width="256.215" height="37.108" x="461.355" y="333.976" class="bar lts"/><rect width="2" height="37.108" x="460.355" y="333.976" class="bar-join lts" style="opacity:1"/><text x="476.355" y="354.53" class="label" style="opacity:1">lts</text></g><g transform="translate(110, 30)"><rect width="51.355" height="37.108" x="410" y="333.976" class="bar current"/><rect width="2" height="37.108" x="409" y="333.976" class="bar-join current" style="opacity:1"/><text x="425" y="354.53" class="label" style="opacity:0">current</text></g><g transform="translate(110, 30)"><rect width="51.075" height="37.108" x="358.925" y="333.976" class="bar alpha"/><rect width="2" height="37.108" x="357.925" y="333.976" class="bar-join alpha" style="opacity:0"/><text x="373.925" y="354.53" class="label" style="opacity:0">alpha</text></g><g transform="translate(110, 30)"><rect width="256.215" height="37.108" x="563.785" y="386.988" class="bar lts"/><rect width="2" height="37.108" x="562.785" y="386.988" class="bar-join lts" style="opacity:1"/><text x="578.785" y="407.542" class="label" style="opacity:1">lts</text></g><g transform="translate(110, 30)"><rect width="51.355" height="37.108" x="512.43" y="386.988" class="bar current"/><rect width="2" height="37.108" x="511.43" y="386.988" class="bar-join current" style="opacity:1"/><text x="527.43" y="407.542" class="label" style="opacity:0">current</text></g><g transform="translate(110, 30)"><rect width="51.075" height="37.108" x="461.355" y="386.988" class="bar alpha"/><rect width="2" height="37.108" x="460.355" y="386.988" class="bar-join alpha" style="opacity:0"/><text x="476.355" y="407.542" class="label" style="opacity:0">alpha</text></g></g></svg>