<svg xmlns="http://www.w3.org/2000/svg" width="200" height="200" viewBox="0 0 44 50"><defs><clipPath id="hexClip"><path d="M22.8725 0.4166C22.136 0 21.2616 0 20.5253 0.4166L1.1505 11.6694C0.4142 12.0862 0 12.8733 0 13.707V36.2584C0 37.0921 0.4602 37.8791 1.1505 38.296L20.5253 49.5487C21.2616 49.9653 22.136 49.9653 22.8725 49.5487L42.2471 38.296C42.9836 37.8791 43.3976 37.0921 43.3976 36.2584V13.707C43.3976 12.8733 42.9375 12.0862 42.2471 11.6694L22.8725 0.4166Z"/></clipPath><linearGradient id="main" x1="30.33" x2="14.9" y1="8.56" y2="44.7" gradientUnits="userSpaceOnUse"><stop stop-color="#3F8B3D"/><stop offset=".64" stop-color="#3F873F"/><stop offset=".93" stop-color="#3DA92E"/><stop offset="1" stop-color="#3DAE2B"/></linearGradient><linearGradient id="r1" x1="18.8" x2="68" y1="26.8" y2=".4" gradientUnits="userSpaceOnUse"><stop offset=".14" stop-color="#3F873F"/><stop offset=".4" stop-color="#52A044"/><stop offset=".71" stop-color="#64B749"/><stop offset=".91" stop-color="#6ABF4B"/></linearGradient><linearGradient id="r2" x1=".25" x2="44" y1="24.5" y2="24.5" gradientUnits="userSpaceOnUse"><stop offset=".09" stop-color="#6ABF4B"/><stop offset=".29" stop-color="#64B749"/><stop offset=".6" stop-color="#52A044"/><stop offset=".86" stop-color="#3F873F"/></linearGradient></defs><path fill="url(#main)" d="M22.8725 0.4166C22.136 0 21.2616 0 20.5253 0.4166L1.1505 11.6694C0.4142 12.0862 0 12.8733 0 13.707V36.2584C0 37.0921 0.4602 37.8791 1.1505 38.296L20.5253 49.5487C21.2616 49.9653 22.136 49.9653 22.8725 49.5487L42.2471 38.296C42.9836 37.8791 43.3976 37.0921 43.3976 36.2584V13.707C43.3976 12.8733 42.9375 12.0862 42.2471 11.6694L22.8725 0.4166Z"/><polygon fill="url(#r1)" points="21.699 -1.047 43.205 11.948 21.699 51.073 .153 38.055" clip-path="url(#hexClip)"/><polygon fill="url(#r2)" points="21.699 -1.047 .153 11.948 21.699 51.073 43.205 38.055" clip-path="url(#hexClip)"/></svg>